# xmcd CD database file
#
# Track frame offsets:
#	183
#	31908
#	58983
#	87558
#	113583
#	130983
#	160808
#	185583
#	204708
#	232308
#	259983
#
# Disc length: 3723 seconds
#
# Revision: 1
# Processed by: cddbd v1.5.2PL0 Copyright (c) Steve Scherf et al.
# Submitted via: CDex 1.51
#
DISCID=a40e890b
DTITLE=David Essig - Rebel Flag
DYEAR=1990
DGENRE=Country
TTITLE0=Rebel Flag
TTITLE1=Woman in the Snow
TTITLE2=Jamieson's Farewell
TTITLE3=Albert's Cove
TTITLE4=Bourrasque
TTITLE5=Highland Clearances
TTITLE6=Great Wall of China
TTITLE7=Berkley Springs
TTITLE8=In the Pines
TTITLE9=Two Weeks Home
TTITLE10=Anthem for the New Nations.
EXTD=YEAR: 1990
EXTT0=
EXTT1=
EXTT2=
EXTT3=
EXTT4=
EXTT5=
EXTT6=
EXTT7=
EXTT8=
EXTT9=
EXTT10=
PLAYORDER=
